Coordinates
version=1
nRows=29
nColumns=24
inDegrees=yes

Units are S.I. units (second, meters, Newtons, ...)
If the header above contains a line with 'inDegrees', this indicates whether rotational values are in degrees (yes) or radians (no).

endheader
time	pelvis_tilt	pelvis_list	pelvis_rotation	pelvis_tx	pelvis_ty	pelvis_tz	hip_flexion_r	hip_adduction_r	hip_rotation_r	knee_angle_r	ankle_angle_r	subtalar_angle_r	mtp_angle_r	hip_flexion_l	hip_adduction_l	hip_rotation_l	knee_angle_l	ankle_angle_l	subtalar_angle_l	mtp_angle_l	lumbar_extension	lumbar_bending	lumbar_rotation
      2.20000000	     17.01765330	      2.80665180	     14.18263376	     11.88023117	      0.84102787	     -0.03472212	      3.41995446	     -0.49187630	    -31.55957718	   -135.91313419	     -5.34318012	     14.03169592	      0.00000000	    -14.43675360	      6.37906616	     -9.04296175	    -36.49242094	     32.14149879	      4.66213937	      0.00000000	    -47.04498687	     -1.07016899	      4.54122361
      2.21666700	     17.71502860	      1.38932811	     13.20233580	     11.99724973	      0.83716358	     -0.03110540	     13.26024517	      1.63238883	    -27.94017769	   -137.23236778	      0.54598185	     12.44314891	      0.00000000	    -21.95854111	      2.14080497	    -11.83531341	    -35.13855321	     29.85109083	      7.08637884	      0.00000000	    -46.71258934	      0.09445534	      2.48325844
      2.23333300	     18.11931709	     -0.45684702	     11.02206172	     12.11362843	      0.83317252	     -0.02354759	     23.86715391	      5.09737563	    -21.86972395	   -134.98884143	      2.29380023	      9.28645790	      0.00000000	    -29.86941487	     -2.21568402	    -16.30157759	    -32.73133051	     22.58653729	     12.93394218	      0.00000000	    -46.43422720	      1.02834346	     -0.42637432
      2.25000000	     19.32398674	     -2.32918913	      8.29597065	     12.23432856	      0.83104963	     -0.01706877	     31.54674350	      8.78989668	    -16.23784711	   -129.39727352	      3.11277201	      7.35230697	      0.00000000	    -37.96554117	     -3.97709504	    -17.68015835	    -30.54465831	     12.03071422	     15.81564155	      0.00000000	    -46.55695979	      1.81704991	     -2.35094719
      2.26666700	     20.33926187	     -5.07435838	      4.27871955	     12.36299266	      0.83199539	     -0.01099872	     37.16990853	     13.21008136	    -11.97466349	   -119.53784255	      9.93192543	      3.24801754	      0.00000000	    -43.99074811	     -2.56413605	    -13.19335826	    -28.81846533	     -6.91037601	      8.89098376	      0.00000000	    -45.80477002	      2.56399513	     -1.38761210
      2.28333300	     20.55916367	     -8.00192826	     -0.92024161	     12.49272645	      0.83676815	     -0.00529341	     40.94472451	     17.93131896	     -7.80035818	   -105.36832796	     13.61850004	     -1.94603536	      0.00000000	    -47.14653419	      1.18017028	     -5.14911402	    -30.03929651	    -27.73726174	      3.78224128	      0.00000000	    -44.57202622	      3.01269473	      0.38153404
      2.30000000	     20.66474635	    -10.10705636	     -5.41415088	     12.61711009	      0.84307193	     -0.00306098	     40.81371748	     21.48030676	     -4.32967427	    -90.87338637	     10.21504883	     -5.39387477	      0.00000000	    -47.92973658	      4.47510587	     -1.90037164	    -35.76613017	    -40.77971483	     10.62744298	      0.00000000	    -44.43623577	      3.51039826	      1.70050974
      2.31666700	     20.54503828	    -10.72051774	     -7.69670210	     12.73169814	      0.85126011	     -0.00441539	     36.24328275	     22.84772160	     -1.51868455	    -76.40178956	      8.68845400	     -2.38161534	      0.00000000	    -45.27011413	      4.78820305	     -6.83755457	    -49.01192661	    -43.19602798	     22.41419251	      0.00000000	    -45.92827317	      3.81689400	      0.68880294
      2.33333300	     19.93231430	    -10.78707499	     -8.45007373	     12.84167608	      0.85833245	     -0.00840422	     29.45682950	     22.73264101	      0.06461938	    -61.60423524	      9.87492460	      4.09193938	      0.00000000	    -40.20021939	      2.75333707	    -13.24607021	    -67.03382140	    -42.53007847	     29.51653183	      0.00000000	    -47.65714462	      4.52504730	     -1.05875796
      2.35000000	     19.66548680	    -10.64548555	     -8.97331244	     12.95396516	      0.86263405	     -0.01067729	     21.94553083	     22.02544921	      0.83442074	    -49.74009393	     10.19463482	      8.19220782	      0.00000000	    -35.24439063	      0.48243989	    -17.65088714	    -83.36996027	    -40.23973040	     28.75870694	      0.00000000	    -49.14438817	      5.11156793	     -1.42733731
      2.36666700	     19.87620116	     -9.86645197	     -9.51450338	     13.07362370	      0.86097048	     -0.01000795	     14.91823353	     20.75931454	      2.10351638	    -44.07207078	     11.20958226	      5.63828367	      0.00000000	    -30.51015201	     -1.10795176	    -19.90842908	    -96.96631097	    -36.44524596	     24.34220713	      0.00000000	    -49.27142661	      5.32146722	     -0.67257768
      2.38333300	     20.66424979	     -8.80761738	    -10.02071516	     13.19606062	      0.85710906	     -0.00925512	      7.09708650	     18.57357024	      3.25621982	    -41.73751272	     13.68820495	      1.10872175	      0.00000000	    -25.60960550	     -2.64663942	    -21.88685378	   -108.78917487	    -31.66550448	     18.02143828	      0.00000000	    -49.42971655	      5.40350457	      1.09459120
      2.40000000	     20.46146055	     -7.68439899	    -10.49691407	     13.31809751	      0.85024923	     -0.00736889	      0.73465392	     16.00189350	      2.94480993	    -41.30201713	     18.14841648	     -1.27735900	      0.00000000	    -19.04368558	     -3.75561014	    -22.84407083	   -118.06786355	    -25.75605032	     12.53390395	      0.00000000	    -48.41737055	      5.14242455	      3.47973288
      2.41666700	     19.62483918	     -7.25664681	    -11.50284504	     13.43839219	      0.84026586	     -0.00341715	     -5.26131927	     13.53663372	      1.14006844	    -42.61781635	     26.23081485	      2.54662399	      0.00000000	    -11.58645003	     -4.60120843	    -22.31936541	   -124.05479197	    -19.15784020	     12.49657143	      0.00000000	    -47.19941860	      4.52868118	      6.27868146
      2.43333300	     17.95892777	     -6.70961801	    -12.67694792	     13.55669126	      0.82650308	      0.00038705	    -10.13591289	     10.73216647	     -0.97701023	    -45.78825984	     33.46799929	      5.91214360	      0.00000000	     -2.17075230	     -4.73824262	    -20.68129936	   -127.19953111	    -13.10000160	     14.25212640	      0.00000000	    -45.14088508	      3.45692068	      9.20574242
      2.45000000	     16.86141846	     -5.97284580	    -11.79027590	     13.67783406	      0.81787742	      0.00127803	    -15.60968547	      8.43979496	     -2.77381054	    -46.97999482	     32.38314199	      5.69322748	      0.00000000	      7.34057520	     -4.17724866	    -17.20968777	   -126.66434316	     -6.62363588	     13.85500038	      0.00000000	    -43.33954436	      3.07757208	     11.09999512
      2.46666700	     16.29465278	     -4.11555805	     -8.00620514	     13.80265272	      0.81869227	     -0.00306838	    -21.97195569	      5.96144043	     -5.28924348	    -43.83840402	     17.53690485	      4.82561356	      0.00000000	     17.65839034	     -1.03158985	    -11.22501324	   -121.13482219	      2.82024543	      8.28596812	      0.00000000	    -41.46684170	      2.76080269	     11.64751205
      2.48333300	     16.38142537	     -2.15188601	     -2.36394059	     13.92781546	      0.82565762	     -0.00965025	    -29.30188137	      5.06731075	     -8.02354549	    -39.29864566	     -2.29202789	      9.63456896	      0.00000000	     26.58663525	      3.76373857	     -3.43743602	   -110.24888457	      3.19284912	     -0.61780790	      0.00000000	    -40.23455387	      2.70198792	     11.59106268
      2.50000000	     16.45381210	     -0.02792681	      2.46453762	     14.05196177	      0.83202680	     -0.01572908	    -34.46028000	      5.25092655	     -9.93023982	    -38.51298673	    -17.90221456	     16.92799078	      0.00000000	     31.09655438	      8.18969834	      1.96807021	    -96.76746648	     -3.43982580	     -6.29264100	      0.00000000	    -39.80777484	      1.99648514	     10.90581821
      2.51666700	     16.13956005	      1.74643434	      5.57697474	     14.17498596	      0.83512680	     -0.01683315	    -35.20458857	      7.35819310	     -7.87742071	    -45.32921773	    -23.90269815	     20.84616400	      0.00000000	     30.82413332	      9.62820418	      4.06817856	    -81.21733927	     -3.13878968	     -4.92591060	      0.00000000	    -39.73771778	      0.53187970	     10.39391472
      2.53333300	     15.35513998	      3.66368861	      8.20667658	     14.29698790	      0.83721524	     -0.01779493	    -33.00342756	      9.53508112	     -6.55062459	    -56.42656840	    -27.63329662	     26.58527650	      0.00000000	     27.78716140	      9.95349346	      3.75998997	    -63.48426502	      0.25961674	      1.86910380	      0.00000000	    -39.82885805	     -1.11816641	      9.10183062
      2.55000000	     15.55948004	      4.91732149	     10.23223669	     14.41879108	      0.84134060	     -0.01812896	    -30.84423091	     10.67003065	     -7.75002265	    -67.90801705	    -30.99767743	     32.19724836	      0.00000000	     22.69366542	     10.02276894	      2.60315062	    -48.50695608	     -0.03338936	      7.68818604	      0.00000000	    -41.04242896	     -2.43305686	      8.06562914
      2.56666700	     15.81500957	      4.46154490	     10.63843439	     14.54073719	      0.84844937	     -0.01544663	    -27.57237783	     10.17797136	    -10.91561797	    -80.38220688	    -31.43303192	     32.68288822	      0.00000000	     17.59254305	      9.78099572	      2.26286484	    -38.76357261	     -1.36215287	      7.24582710	      0.00000000	    -42.02552794	     -3.42480466	      7.58480397
      2.58333300	     17.21990561	      3.89469940	     10.26410902	     14.66276773	      0.85788002	     -0.01371597	    -24.78977906	      8.04238049	    -15.29891821	    -93.53986400	    -29.23857113	     27.96130335	      0.00000000	     10.31498360	     10.14898152	      2.76677180	    -31.67008732	      0.22985135	      2.81591092	      0.00000000	    -44.30096600	     -4.50064271	      7.11959171
      2.60000000	     18.03675368	      2.91821080	     10.56683156	     14.78702365	      0.86254841	     -0.01295059	    -20.47729537	      6.67210547	    -19.77091055	   -105.27092050	    -26.85971831	     19.68588167	      0.00000000	      4.15659029	      9.84410542	      4.00212958	    -28.54080673	      5.59415851	     -0.89411583	      0.00000000	    -45.04894599	     -4.72527662	      6.85052849
      2.61666700	     19.14007440	      3.00780631	     11.79604373	     14.91577311	      0.86102206	     -0.01625117	    -15.42295006	      5.19828256	    -23.94738914	   -116.14968453	    -22.79111562	     14.12672088	      0.00000000	     -2.26416684	      9.52901994	      3.71130336	    -29.51476634	     15.35352615	     -0.73024515	      0.00000000	    -45.32810707	     -4.71474709	      6.53092448
      2.63333300	     21.11501474	      3.20674649	     13.54657690	     15.04599746	      0.85713329	     -0.02144318	    -10.04437202	      4.13043340	    -27.86577506	   -125.51921108	    -17.04542098	     10.98195910	      0.00000000	     -9.49640437	      8.11172999	      2.55421070	    -33.79248096	     25.32805359	     -0.35819527	      0.00000000	    -45.93728188	     -3.90227127	      6.29510514
      2.65000000	     22.20601407	      3.00419880	     14.24847254	     15.17363190	      0.85190919	     -0.02378826	     -2.80326740	      3.58165071	    -29.34185202	   -131.85027645	    -10.19461081	     10.50843422	      0.00000000	    -16.02262419	      5.66847658	      0.59148133	    -37.08403687	     31.37061059	      0.52611168	      0.00000000	    -45.81906583	     -3.24436939	      5.18987828
      2.66666700	     23.00534121	      1.49000070	     13.18190020	     15.29697972	      0.84682725	     -0.02060759	      6.23370370	      4.99540220	    -27.08469035	   -134.15710489	     -3.82852884	     10.44444548	      0.00000000	    -23.32983871	      1.06281534	     -4.19647219	    -37.29999756	     31.95975170	      4.92190781	      0.00000000	    -45.90453270	     -1.94474521	      3.50144715
